<svg xmlns="http://www.w3.org/2000/svg" viewBox="0 0 512 512">
  <defs>
    <linearGradient id="cloudGradient" x1="0%" y1="0%" x2="100%" y2="100%">
      <stop offset="0%" style="stop-color:#06b6d4"/>
      <stop offset="100%" style="stop-color:#2563eb"/>
    </linearGradient>
  </defs>
  <path fill="url(#cloudGradient)" d="M416 384c-17.7 0-32-14.3-32-32s14.3-32 32-32 32 14.3 32 32-14.3 32-32 32zm-320 0c-17.7 0-32-14.3-32-32s14.3-32 32-32 32 14.3 32 32-14.3 32-32 32zm320-128c0-70.7-57.3-128-128-128-47.3 0-88.5 25.7-110.3 63.7-7.6-1.5-15.4-2.3-23.4-2.3-61.9 0-112 50.1-112 112s50.1 112 112 112h272c52.9 0 96-43.1 96-96 0-52.9-43.1-96-96-96h-10.3c-.1-1.7-.1-3.4-.1-5.1 0-35.3 28.7-64 64-64 17.7 0 33.7 7.2 45.3 18.8 10.6 10.6 17.8 24.5 19.5 40h-1.3z"/>
</svg>
